<svg xmlns="http://www.w3.org/2000/svg" width="512" height="512" viewBox="0 0 512 512">
<rect width="512" height="512" rx="112" fill="#151210"/>
<circle cx="256" cy="256" r="158" fill="none" stroke="#fffaf4" stroke-width="26" opacity=".95"/>
<circle cx="256" cy="256" r="103" fill="none" stroke="#d3a760" stroke-width="18"/>
<circle cx="256" cy="256" r="28" fill="#d3a760"/>
<path d="M210 190c-27 0-49 21-49 48 0 16 8 31 20 40-5 30 18 56 48 56 13 0 25-5 34-13 9 8 21 13 35 13 30 0 53-26 48-56 12-9 20-24 20-40 0-27-22-48-49-48-11 0-22 4-30 10-8-18-26-30-47-30s-39 12-47 30c-8-6-18-10-30-10z" fill="#fffaf4"/>
<path d="M213 230c18-12 43-4 49 17M301 230c-18-12-43-4-49 17M218 286c19 15 48 12 62-8M294 286c-19 15-48 12-62-8" fill="none" stroke="#151210" stroke-width="13" stroke-linecap="round"/>
<path d="M256 55v52M256 405v52M55 256h52M405 256h52" stroke="#d3a760" stroke-width="20" stroke-linecap="round"/>
</svg>